<svg width="200" height="200" viewBox="0 0 200 200" fill="none" xmlns="http://www.w3.org/2000/svg">
<path d="M140.917 107.583H59.0834V92.4167H140.917V107.583ZM17.4167 100C17.4167 54.3726 54.3726 17.4167 100 17.4167C145.627 17.4167 182.583 54.3726 182.583 100C182.583 145.627 145.627 182.583 100 182.583C54.3726 182.583 17.4167 145.627 17.4167 100ZM32.5834 100C32.5834 137.164 62.8358 167.417 100 167.417C137.164 167.417 167.417 137.164 167.417 100C167.417 62.8358 137.164 32.5833 100 32.5833C62.8358 32.5833 32.5834 62.8358 32.5834 100Z" fill="white" stroke="black" stroke-width="1.5"/>
</svg>
