<svg width="32" height="32" viewBox="0 0 32 32" fill="none" xmlns="http://www.w3.org/2000/svg">
<path d="M3.70991 29.71L10.2099 23.21V23.14C12.5722 25.1435 15.6176 26.1559 18.7092 25.9655C21.8008 25.7752 24.699 24.3967 26.7976 22.1186C28.8962 19.8404 30.0326 16.839 29.9692 13.7422C29.9057 10.6455 28.6472 7.69316 26.457 5.50294C24.2667 3.31272 21.3144 2.05424 18.2177 1.99074C15.1209 1.92725 12.1195 3.06367 9.84132 5.16228C7.56317 7.26089 6.18473 10.1591 5.99436 13.2507C5.804 16.3423 6.81644 19.3877 8.81991 21.75C8.81991 21.75 8.76991 21.75 8.74991 21.75L2.24991 28.25C2.15618 28.343 2.08178 28.4536 2.03102 28.5754C1.98025 28.6973 1.95411 28.828 1.95411 28.96C1.95411 29.092 1.98025 29.2227 2.03102 29.3446C2.08178 29.4664 2.15618 29.577 2.24991 29.67C2.34068 29.7725 2.45154 29.8553 2.57562 29.9132C2.6997 29.9711 2.83435 30.003 2.97123 30.0067C3.10811 30.0105 3.2443 29.9861 3.37137 29.935C3.49843 29.884 3.61366 29.8074 3.70991 29.71ZM7.99991 14C7.99991 12.0222 8.5864 10.0888 9.68521 8.44429C10.784 6.7998 12.3458 5.51807 14.1731 4.7612C16.0003 4.00432 18.011 3.80629 19.9508 4.19214C21.8906 4.57799 23.6724 5.5304 25.071 6.92893C26.4695 8.32745 27.4219 10.1093 27.8078 12.0491C28.1936 13.9889 27.9956 15.9996 27.2387 17.8268C26.4818 19.6541 25.2001 21.2159 23.5556 22.3147C21.9111 23.4135 19.9777 24 17.9999 24C16.6867 24 15.3863 23.7413 14.1731 23.2388C12.9598 22.7362 11.8574 21.9996 10.9288 21.0711C10.0003 20.1425 9.26366 19.0401 8.76111 17.8268C8.25856 16.6136 7.99991 15.3132 7.99991 14Z" fill="white"/>
</svg>
