<svg width="72" height="72" viewBox="0 0 72 72" fill="none" xmlns="http://www.w3.org/2000/svg">
<g clip-path="url(#clip0_10_329)">
<path d="M35.9999 22.3734C28.544 22.3734 22.6265 28.4175 22.6265 35.7469C22.6265 43.0762 28.4202 49.3734 35.9999 49.3734C43.5796 49.3734 49.3733 43.3294 49.3733 36C49.3733 28.6706 43.453 22.3734 35.9999 22.3734ZM71.6202 48.7969L62.7327 35.8734L71.6132 23.0752C72.5036 21.792 71.7684 20.018 70.2314 19.7395L54.9033 16.9692L52.133 1.6411C51.8552 0.104068 50.0813 -0.631401 48.7973 0.259599L35.9999 9.26579L23.0765 0.384755C21.7933 -0.505682 20.0193 0.229084 19.7409 1.76626L17.0999 17.1L1.76617 19.8703C0.229561 20.1375 -0.505767 21.9234 0.38467 23.0766L9.2657 36L0.385233 48.7983C-0.505205 50.0815 0.229842 51.8555 1.76673 52.1339L17.0949 54.9042L19.8652 70.2323C20.1429 71.7694 21.9169 72.5048 23.2008 71.6138L35.9999 62.7328L48.7982 71.6133C50.0817 72.504 51.8568 71.769 52.1338 70.2321L54.9041 54.9039L70.2322 52.1336C71.7749 51.8625 72.5062 50.0766 71.6202 48.7969ZM35.9999 53.8734C26.0591 53.8734 18.1265 45.8142 18.1265 36C18.1265 26.0592 26.1857 18.1266 35.9999 18.1266C45.8141 18.1266 53.8733 26.1844 53.8733 36C53.8733 45.9422 45.9421 53.8734 35.9999 53.8734Z" fill="white"/>
</g>
<defs>
<clipPath id="clip0_10_329">
<rect width="72" height="72" fill="white"/>
</clipPath>
</defs>
</svg>
