<svg width="200" height="200" viewBox="0 0 200 200" fill="none" xmlns="http://www.w3.org/2000/svg">
<path d="M101.103 30V29.2501V1.7986L139.668 40L101.103 78.2014V50.7513V50V30ZM99.6034 30.7539V49.2541C89.7222 49.3802 80.0821 52.3355 71.8499 57.7721C63.4091 63.3465 56.8282 71.2788 52.9426 80.5641C49.057 89.8496 48.0421 100.069 50.0268 109.927C51.9618 119.538 56.6629 128.382 63.5541 135.397L50.385 148.442C40.8932 138.837 34.4245 126.701 31.7755 113.51C29.0779 100.078 30.4621 86.1543 35.7534 73.5008C41.0447 60.8472 50.0059 50.031 61.5046 42.421C72.7954 34.9484 86.0346 30.8971 99.6034 30.7539ZM99.6034 170V170.75V198.201L61.0384 160L99.6034 121.799V149.249V150V170ZM101.103 150.746C110.985 150.62 120.625 147.664 128.857 142.228C137.298 136.653 143.879 128.721 147.764 119.436C151.65 110.15 152.665 99.9308 150.68 90.0729C148.745 80.4619 144.044 71.6176 137.153 64.6033L150.322 51.5584C159.814 61.1627 166.282 73.2993 168.931 86.49C171.629 99.9224 170.245 113.846 164.953 126.499C159.662 139.153 150.701 149.969 139.202 157.579C127.911 165.052 114.672 169.103 101.103 169.246V150.746Z" fill="white" stroke="black" stroke-width="1.5"/>
</svg>
